HIERARCHY
ROOT root
{
	OFFSET	0	13.1	24.9
	CHANNELS 6  Xposition Yposition Zposition Xrotation Yrotation Zrotation
	JOINT spine_1
	{
		OFFSET	0	9.99999	0
		CHANNELS 3  Xrotation Yrotation Zrotation
		JOINT spine_2
		{
			OFFSET	0	112	-10
			CHANNELS 3  Xrotation Yrotation Zrotation
			JOINT spine_3
			{
				OFFSET	0	206.5	19.3
				CHANNELS 3  Xrotation Yrotation Zrotation
				JOINT spine_4
				{
					OFFSET	0	110.4	14.6
					CHANNELS 3  Xrotation Yrotation Zrotation
					JOINT neck_1
					{
						OFFSET	0	71.8	-50.3
						CHANNELS 3  Xrotation Yrotation Zrotation
						JOINT neck_2
						{
							OFFSET	0	86.2	-25.8
							CHANNELS 3  Xrotation Yrotation Zrotation
							JOINT head_ee
							{
								OFFSET	0	179.8	-8.7
								CHANNELS 3  Xrotation Yrotation Zrotation
								End Site
								{
									OFFSET	1	0	0
								}
							}
						}
					}
					JOINT left_clavicle
					{
						OFFSET	-43.2	22.4	-70.8
						CHANNELS 3  Xrotation Yrotation Zrotation
						JOINT left_shoulder
						{
							OFFSET	-93.9	-5.79999	48.7
							CHANNELS 3  Xrotation Yrotation Zrotation
							JOINT left_elbow
							{
								OFFSET	-291.4	-30.8	15.2
								CHANNELS 3  Xrotation Yrotation Zrotation
								JOINT left_lowarm_twist
								{
									OFFSET	-110.7	-3.89999	13.6
									CHANNELS 3  Xrotation Yrotation Zrotation
									JOINT left_hand
									{
										OFFSET	-110.7	-3.89999	13.6
										CHANNELS 3  Xrotation Yrotation Zrotation
										JOINT left_ee
										{
											OFFSET	-80.8	-5.10001	12.1
											CHANNELS 3  Xrotation Yrotation Zrotation
											End Site
											{
												OFFSET	1	0	0
											}
										}
									}
								}
							}
						}
					}
					JOINT right_clavicle
					{
						OFFSET	43.2	22.4	-70.8
						CHANNELS 3  Xrotation Yrotation Zrotation
						JOINT right_shoulder
						{
							OFFSET	93.9	-5.79999	48.7
							CHANNELS 3  Xrotation Yrotation Zrotation
							JOINT right_elbow
							{
								OFFSET	291.4	-30.8	15.2
								CHANNELS 3  Xrotation Yrotation Zrotation
								JOINT right_lowarm_twist
								{
									OFFSET	110.7	-3.89999	13.6
									CHANNELS 3  Xrotation Yrotation Zrotation
									JOINT right_hand
									{
										OFFSET	110.7	-3.89999	13.6
										CHANNELS 3  Xrotation Yrotation Zrotation
										JOINT right_ee
										{
											OFFSET	80.8	-5.10001	12.1
											CHANNELS 3  Xrotation Yrotation Zrotation
											End Site
											{
												OFFSET	1	0	0
											}
										}
									}
								}
							}
						}
					}
				}
			}
		}
	}
	JOINT left_hip
	{
		OFFSET	-82.8	-127.5	0.300001
		CHANNELS 3  Xrotation Yrotation Zrotation
		JOINT left_knee
		{
			OFFSET	-28.2	-396.7	2.2
			CHANNELS 3  Xrotation Yrotation Zrotation
			JOINT left_ankle
			{
				OFFSET	-11.7	-411.3	35.4
				CHANNELS 3  Xrotation Yrotation Zrotation
				JOINT left_toes
				{
					OFFSET	0	-60	-88.6
					CHANNELS 3  Xrotation Yrotation Zrotation
					JOINT left_foot_ee
					{
						OFFSET	-22.5	-16.5	-42.2
						CHANNELS 3  Xrotation Yrotation Zrotation
						End Site
						{
							OFFSET	1	0	0
						}
					}
				}
			}
		}
	}
	JOINT right_hip
	{
		OFFSET	82.8	-127.5	0.300001
		CHANNELS 3  Xrotation Yrotation Zrotation
		JOINT right_knee
		{
			OFFSET	28.2	-396.7	2.2
			CHANNELS 3  Xrotation Yrotation Zrotation
			JOINT right_ankle
			{
				OFFSET	11.7	-411.3	35.4
				CHANNELS 3  Xrotation Yrotation Zrotation
				JOINT right_toes
				{
					OFFSET	0	-60	-88.6
					CHANNELS 3  Xrotation Yrotation Zrotation
					JOINT right_foot_ee
					{
						OFFSET	22.5	-16.5	-42.2
						CHANNELS 3  Xrotation Yrotation Zrotation
						End Site
						{
							OFFSET	1	0	0
						}
					}
				}
			}
		}
	}
}
MOTION
Frames: 5
Frame Time: 0.02
949.203 710.143 -423.304 40.1033 -78.3827 43.3535 -2.97437 -0.489114 -0.636907 -2.97425 -0.447596 -0.666738 -2.96862 -0.258465 -0.760311 -2.96923 -0.375295 -0.709953 -10.4785 1.8636 -2.00395 -10.4746 4.85366 -1.46971 -0.0 0.0 -0.0 6.87671 15.1726 12.9034 -16.8513 -11.6234 62.7524 0.152337 -4.31566 0.0057399 48.9442 -0.894266 -6.00056 -6.36026 29.5788 -23.1831 -0.0 0.0 -0.0 11.1296 24.4868 -21.5629 21.7984 -23.4041 -61.6417 2.51798 51.2722 -1.20851 80.1252 3.85299 8.61681 9.06849 13.1252 -71.7959 0.0 0.0 0.0 20.2265 -4.18099 -9.10963 -51.7005 -1.37347 7.55027 -13.3165 13.1389 1.99894 34.997 -0.0 -0.0 -0.0 0.0 -0.0 -1.42342 -6.28318 -8.54687 -23.2354 -0.243206 -3.53299 26.3316 21.5227 3.94418 -11.9666 0.0 0.0 0.0 0.0 0.0 
960.451 708.796 -420.21 46.9279 -79.3034 50.3319 -3.04621 -0.36654 -0.588711 -3.04608 -0.328337 -0.610841 -3.04222 -0.157005 -0.675483 -3.04276 -0.261713 -0.642212 -11.0071 2.45359 -1.92011 -11.0103 5.90285 -1.20863 -0.0 0.0 -0.0 6.54367 14.3413 12.393 -17.1778 -10.1296 63.3051 0.152222 -4.3124 0.00573119 49.5891 -0.939553 -6.06961 -6.43281 29.9924 -23.2469 -0.0 0.0 -0.0 11.2478 23.3987 -21.9366 22.4901 -22.2784 -62.7393 2.80821 54.2793 -1.4397 79.2869 3.75658 8.56906 9.02144 12.4213 -72.1385 0.0 0.0 0.0 22.8896 -0.881299 -9.70553 -47.1038 -0.97939 6.96254 -10.6919 11.6538 1.59756 36.2925 -0.0 -0.0 -0.0 0.0 -0.0 -2.80895 -5.13666 -9.08185 -22.7727 -0.252413 -3.46258 26.398 22.2355 3.97896 -11.7334 0.0 0.0 0.0 0.0 0.0 
971.83 707.604 -417.63 44.8635 -79.3435 48.1979 -3.04552 -0.27113 -0.469366 -3.04543 -0.240714 -0.485667 -3.04317 -0.105187 -0.531743 -3.04351 -0.187845 -0.508458 -10.5109 2.78233 -2.1353 -10.5128 6.67308 -1.35946 -0.0 0.0 -0.0 6.27211 13.5728 11.9697 -17.0054 -7.72601 63.3923 0.177946 -5.03769 0.00782801 51.3618 -1.06802 -6.25675 -6.72344 29.7872 -25.1767 -0.0 0.0 -0.0 10.6932 24.0305 -20.6216 22.7544 -20.5067 -64.3521 3.01177 56.1559 -1.60691 79.1146 3.73684 8.55907 8.99797 12.9924 -70.6942 0.0 0.0 0.0 25.2444 -0.114429 -9.85802 -39.0612 -0.408122 5.86641 -9.69952 10.3112 1.44603 35.7588 -0.0 -0.0 -0.0 0.0 -0.0 -5.09665 -5.41474 -9.99539 -17.8937 -0.314763 -2.71676 25.6599 18.561 3.76164 -12.2015 0.0 0.0 0.0 0.0 0.0 
988.106 703.045 -413.451 48.4637 -79.626 51.6429 -3.23608 0.0246685 -0.394224 -3.23599 0.0497038 -0.391855 -3.23625 0.151783 -0.364668 -3.23642 0.0922865 -0.384063 -10.3065 2.94233 -1.93224 -10.3106 6.84113 -1.13333 -0.0 0.0 -0.0 6.1814 13.7397 11.8104 -17.6499 -8.81749 62.8909 0.187444 -5.30507 0.00868398 49.9305 -0.963837 -6.10595 -6.82756 29.3759 -26.1992 -0.0 0.0 -0.0 10.3927 23.8324 -19.9637 22.7798 -18.4287 -65.7305 3.16044 57.4196 -1.7313 78.092 3.62038 8.49858 9.03935 12.4705 -72.4068 0.0 0.0 0.0 26.9558 0.886904 -10.3497 -36.2464 -0.245397 5.46565 -8.98705 10.5326 1.33864 36.0555 -0.0 -0.0 -0.0 0.0 -0.0 -5.74422 -5.38598 -10.0694 -19.7388 -0.298656 -2.99939 26.3073 19.6507 3.87616 -11.8622 0.0 0.0 0.0 0.0 0.0 
996.172 698.152 -414.946 45.774 -79.8433 48.8033 -3.24024 -0.072001 -0.0940887 -3.24024 -0.065868 -0.0984796 -3.24012 -0.0374046 -0.112418 -3.24013 -0.0546894 -0.105099 -10.3835 2.80255 -1.91162 -10.387 6.56317 -1.14431 -0.0 0.0 -0.0 6.1446 13.463 11.7583 -17.7449 -8.26782 63.2563 0.198909 -5.62755 0.00977628 50.0732 -0.974053 -6.12109 -6.94901 29.2337 -27.0884 -0.0 0.0 -0.0 9.80924 23.9917 -18.6401 23.6128 -17.7945 -68.0004 3.31806 58.6703 -1.86504 77.68 3.57376 8.47362 9.04595 12.0693 -73.2907 0.0 0.0 0.0 28.0957 1.76072 -10.5706 -33.0584 -0.0851789 5.00292 -7.73599 9.85814 1.14977 36.288 -0.0 -0.0 -0.0 0.0 -0.0 -6.37503 -4.1408 -10.3488 -18.4739 -0.310679 -2.80569 26.3198 20.7107 3.91372 -11.8512 0.0 0.0 0.0 0.0 0.0 
